<svg width="593" height="593" viewBox="0 0 593 593" fill="none" xmlns="http://www.w3.org/2000/svg" style="">
<path fill="#E064CC" fill-opacity="0.05" d="M0,296.5A296.5,296.5 0,1,1 593,296.5A296.5,296.5 0,1,1 0,296.5" class="EhatDXFe_0"></path>
<path fill="#E064CC" fill-opacity="0.05" d="M38.024,296.5A258.476,258.476 0,1,1 554.976,296.5A258.476,258.476 0,1,1 38.024,296.5" class="EhatDXFe_1"></path>
<path fill="#E064CC" fill-opacity="0.05" d="M81.481,296.5A212.303,212.303 0,1,1 506.087,296.5A212.303,212.303 0,1,1 81.481,296.5" class="EhatDXFe_2"></path>
<path width="256.212" height="354.895" fill="white" d="M 177.731,104.115 L 427.943,104.115 A 3,3,0,0,1,430.943,107.115 L 430.943,456.01 A 3,3,0,0,1,427.943,459.01 L 177.731,459.01 A 3,3,0,0,1,174.731,456.01 L 174.731,107.115 A 3,3,0,0,1,177.731,104.115" class="EhatDXFe_3"></path>
<path width="206" height="36" fill="#F3F3F3" d="M 201,194 L 405,194 A 1,1,0,0,1,406,195 L 406,229 A 1,1,0,0,1,405,230 L 201,230 A 1,1,0,0,1,200,229 L 200,195 A 1,1,0,0,1,201,194" class="EhatDXFe_4"></path>
<path width="206" height="36" fill="#F3F3F3" d="M 201,245 L 405,245 A 1,1,0,0,1,406,246 L 406,280 A 1,1,0,0,1,405,281 L 201,281 A 1,1,0,0,1,200,280 L 200,246 A 1,1,0,0,1,201,245" class="EhatDXFe_5"></path>
<path width="206" height="36" fill="#F3F3F3" d="M 201,143 L 405,143 A 1,1,0,0,1,406,144 L 406,178 A 1,1,0,0,1,405,179 L 201,179 A 1,1,0,0,1,200,178 L 200,144 A 1,1,0,0,1,201,143" class="EhatDXFe_6"></path>
<path width="206" height="36" fill="#F3F3F3" d="M 201,347 L 405,347 A 1,1,0,0,1,406,348 L 406,382 A 1,1,0,0,1,405,383 L 201,383 A 1,1,0,0,1,200,382 L 200,348 A 1,1,0,0,1,201,347" class="EhatDXFe_7"></path>
<path width="206" height="36" fill="#F3F3F3" d="M 201,398 L 405,398 A 1,1,0,0,1,406,399 L 406,433 A 1,1,0,0,1,405,434 L 201,434 A 1,1,0,0,1,200,433 L 200,399 A 1,1,0,0,1,201,398" class="EhatDXFe_8"></path>
<path width="206" height="36" fill="#F3F3F3" d="M 201,296 L 405,296 A 1,1,0,0,1,406,297 L 406,331 A 1,1,0,0,1,405,332 L 201,332 A 1,1,0,0,1,200,331 L 200,297 A 1,1,0,0,1,201,296" class="EhatDXFe_9"></path>
<path width="52.5099" height="15.3908" fill="#FCEFFA" d="M 198,240.35 L 248.50990000000002,240.35 A 1,1,0,0,1,249.50990000000002,241.35 L 249.50990000000002,254.7408 A 1,1,0,0,1,248.50990000000002,255.7408 L 198,255.7408 A 1,1,0,0,1,197,254.7408 L 197,241.35 A 1,1,0,0,1,198,240.35" class="EhatDXFe_10"></path>
<g filter="url(#filter0_d_110_433)">
<path width="231.786" height="69" fill="white" d="M 222,307 L 449.786,307 A 2,2,0,0,1,451.786,309 L 451.786,374 A 2,2,0,0,1,449.786,376 L 222,376 A 2,2,0,0,1,220,374 L 220,309 A 2,2,0,0,1,222,307" class="EhatDXFe_11"></path>
</g>
<path width="44.8835" height="42.8738" fill="#66C085" d="M 232.049,320.398 L 272.9325,320.398 A 2,2,0,0,1,274.9325,322.398 L 274.9325,361.27180000000004 A 2,2,0,0,1,272.9325,363.27180000000004 L 232.049,363.27180000000004 A 2,2,0,0,1,230.049,361.27180000000004 L 230.049,322.398 A 2,2,0,0,1,232.049,320.398" class="EhatDXFe_12"></path>
<path width="152.738" height="11.3883" fill="#66C085" fill-opacity="0.11" d="M 284.641,320.398 L 435.379,320.398 A 1,1,0,0,1,436.379,321.398 L 436.379,330.78630000000004 A 1,1,0,0,1,435.379,331.78630000000004 L 284.641,331.78630000000004 A 1,1,0,0,1,283.641,330.78630000000004 L 283.641,321.398 A 1,1,0,0,1,284.641,320.398" class="EhatDXFe_13"></path>
<path width="38.8544" height="11.3883" fill="#66C085" fill-opacity="0.11" d="M 284.641,339.155 L 321.4954,339.155 A 1,1,0,0,1,322.4954,340.155 L 322.4954,349.5433 A 1,1,0,0,1,321.4954,350.5433 L 284.641,350.5433 A 1,1,0,0,1,283.641,349.5433 L 283.641,340.155 A 1,1,0,0,1,284.641,339.155" class="EhatDXFe_14"></path>
<g clip-path="url(#clip0_110_433)">
<path d="M258.184 336.476H246.126C245.386 336.476 244.786 337.076 244.786 337.816V345.854C244.786 346.594 245.386 347.194 246.126 347.194H258.184C258.924 347.194 259.524 346.594 259.524 345.854V337.816C259.524 337.076 258.924 336.476 258.184 336.476Z" stroke="white" stroke-width="1.33981" stroke-linecap="round" stroke-linejoin="round" class="EhatDXFe_15"></path>
<path d="M244.786 340.495H259.524" stroke="white" stroke-width="1.33981" stroke-linecap="round" stroke-linejoin="round" class="EhatDXFe_16"></path>
</g>
<g filter="url(#filter1_d_110_433)">
<path width="313.249" height="93.2504" fill="white" d="M 84.4809,238.105 L 391.72990000000004,238.105 A 3,3,0,0,1,394.72990000000004,241.105 L 394.72990000000004,328.3554 A 3,3,0,0,1,391.72990000000004,331.3554 L 84.4809,331.3554 A 3,3,0,0,1,81.4809,328.3554 L 81.4809,241.105 A 3,3,0,0,1,84.4809,238.105" class="EhatDXFe_17"></path>
</g>
<path width="60.658" height="57.942" fill="#FD377E" d="M 98.061,256.212 L 152.719,256.212 A 3,3,0,0,1,155.719,259.212 L 155.719,311.154 A 3,3,0,0,1,152.719,314.154 L 98.061,314.154 A 3,3,0,0,1,95.061,311.154 L 95.061,259.212 A 3,3,0,0,1,98.061,256.212" class="EhatDXFe_18"></path>
<path width="206.418" height="15.3908" fill="#FCEFFA" d="M 168.489,256.212 L 372.90700000000004,256.212 A 1,1,0,0,1,373.90700000000004,257.212 L 373.90700000000004,270.6028 A 1,1,0,0,1,372.90700000000004,271.6028 L 168.489,271.6028 A 1,1,0,0,1,167.489,270.6028 L 167.489,257.212 A 1,1,0,0,1,168.489,256.212" class="EhatDXFe_19"></path>
<path width="52.5099" height="15.3908" fill="#FCEFFA" d="M 168.489,281.562 L 218.9989,281.562 A 1,1,0,0,1,219.9989,282.562 L 219.9989,295.9528 A 1,1,0,0,1,218.9989,296.9528 L 168.489,296.9528 A 1,1,0,0,1,167.489,295.9528 L 167.489,282.562 A 1,1,0,0,1,168.489,281.562" class="EhatDXFe_20"></path>
<g clip-path="url(#clip1_110_433)">
<path d="M133.086 277.94H116.789C115.789 277.94 114.979 278.751 114.979 279.751V290.615C114.979 291.615 115.789 292.426 116.789 292.426H133.086C134.086 292.426 134.896 291.615 134.896 290.615V279.751C134.896 278.751 134.086 277.94 133.086 277.94Z" stroke="white" stroke-width="1.81069" stroke-linecap="round" stroke-linejoin="round" class="EhatDXFe_21"></path>
<path d="M114.979 283.373H134.896" stroke="white" stroke-width="1.81069" stroke-linecap="round" stroke-linejoin="round" class="EhatDXFe_22"></path>
</g>
<g filter="url(#filter2_d_110_433)">
<path width="313.249" height="93.2504" fill="white" d="M 84.4809,238.105 L 391.72990000000004,238.105 A 3,3,0,0,1,394.72990000000004,241.105 L 394.72990000000004,328.3554 A 3,3,0,0,1,391.72990000000004,331.3554 L 84.4809,331.3554 A 3,3,0,0,1,81.4809,328.3554 L 81.4809,241.105 A 3,3,0,0,1,84.4809,238.105" class="EhatDXFe_23"></path>
</g>
<path width="60.658" height="57.942" fill="#FD377E" d="M 98.061,256.212 L 152.719,256.212 A 3,3,0,0,1,155.719,259.212 L 155.719,311.154 A 3,3,0,0,1,152.719,314.154 L 98.061,314.154 A 3,3,0,0,1,95.061,311.154 L 95.061,259.212 A 3,3,0,0,1,98.061,256.212" class="EhatDXFe_24"></path>
<path width="206.418" height="15.3908" fill="#FCEFFA" d="M 168.489,256.212 L 372.90700000000004,256.212 A 1,1,0,0,1,373.90700000000004,257.212 L 373.90700000000004,270.6028 A 1,1,0,0,1,372.90700000000004,271.6028 L 168.489,271.6028 A 1,1,0,0,1,167.489,270.6028 L 167.489,257.212 A 1,1,0,0,1,168.489,256.212" class="EhatDXFe_25"></path>
<path width="52.5099" height="15.3908" fill="#FCEFFA" d="M 168.489,281.562 L 218.9989,281.562 A 1,1,0,0,1,219.9989,282.562 L 219.9989,295.9528 A 1,1,0,0,1,218.9989,296.9528 L 168.489,296.9528 A 1,1,0,0,1,167.489,295.9528 L 167.489,282.562 A 1,1,0,0,1,168.489,281.562" class="EhatDXFe_26"></path>
<g clip-path="url(#clip2_110_433)">
<path d="M133.086 277.94H116.789C115.789 277.94 114.979 278.751 114.979 279.751V290.615C114.979 291.615 115.789 292.426 116.789 292.426H133.086C134.086 292.426 134.896 291.615 134.896 290.615V279.751C134.896 278.751 134.086 277.94 133.086 277.94Z" stroke="white" stroke-width="1.81069" stroke-linecap="round" stroke-linejoin="round" class="EhatDXFe_27"></path>
<path d="M114.979 283.373H134.896" stroke="white" stroke-width="1.81069" stroke-linecap="round" stroke-linejoin="round" class="EhatDXFe_28"></path>
</g>
<defs>
<filter id="filter0_d_110_433" x="193.204" y="282.883" width="285.379" height="122.592" filterUnits="userSpaceOnUse" color-interpolation-filters="sRGB">
<feFlood flood-opacity="0" result="BackgroundImageFix"></feFlood>
<feColorMatrix in="SourceAlpha" type="matrix" values="0 0 0 0 0 0 0 0 0 0 0 0 0 0 0 0 0 0 127 0" result="hardAlpha"></feColorMatrix>
<feOffset dy="2.67961"></feOffset>
<feGaussianBlur stdDeviation="13.3981"></feGaussianBlur>
<feComposite in2="hardAlpha" operator="out"></feComposite>
<feColorMatrix type="matrix" values="0 0 0 0 0 0 0 0 0 0 0 0 0 0 0 0 0 0 0.25 0"></feColorMatrix>
<feBlend mode="normal" in2="BackgroundImageFix" result="effect1_dropShadow_110_433"></feBlend>
<feBlend mode="normal" in="SourceGraphic" in2="effect1_dropShadow_110_433" result="shape"></feBlend>
</filter>
<filter id="filter1_d_110_433" x="45.2672" y="205.513" width="385.676" height="165.678" filterUnits="userSpaceOnUse" color-interpolation-filters="sRGB">
<feFlood flood-opacity="0" result="BackgroundImageFix"></feFlood>
<feColorMatrix in="SourceAlpha" type="matrix" values="0 0 0 0 0 0 0 0 0 0 0 0 0 0 0 0 0 0 127 0" result="hardAlpha"></feColorMatrix>
<feOffset dy="3.62137"></feOffset>
<feGaussianBlur stdDeviation="18.1069"></feGaussianBlur>
<feComposite in2="hardAlpha" operator="out"></feComposite>
<feColorMatrix type="matrix" values="0 0 0 0 0 0 0 0 0 0 0 0 0 0 0 0 0 0 0.25 0"></feColorMatrix>
<feBlend mode="normal" in2="BackgroundImageFix" result="effect1_dropShadow_110_433"></feBlend>
<feBlend mode="normal" in="SourceGraphic" in2="effect1_dropShadow_110_433" result="shape"></feBlend>
</filter>
<filter id="filter2_d_110_433" x="45.2672" y="205.513" width="385.676" height="165.678" filterUnits="userSpaceOnUse" color-interpolation-filters="sRGB">
<feFlood flood-opacity="0" result="BackgroundImageFix"></feFlood>
<feColorMatrix in="SourceAlpha" type="matrix" values="0 0 0 0 0 0 0 0 0 0 0 0 0 0 0 0 0 0 127 0" result="hardAlpha"></feColorMatrix>
<feOffset dy="3.62137"></feOffset>
<feGaussianBlur stdDeviation="18.1069"></feGaussianBlur>
<feComposite in2="hardAlpha" operator="out"></feComposite>
<feColorMatrix type="matrix" values="0 0 0 0 0 0 0 0 0 0 0 0 0 0 0 0 0 0 0.25 0"></feColorMatrix>
<feBlend mode="normal" in2="BackgroundImageFix" result="effect1_dropShadow_110_433"></feBlend>
<feBlend mode="normal" in="SourceGraphic" in2="effect1_dropShadow_110_433" result="shape"></feBlend>
</filter>
<clipPath id="clip0_110_433">
<path width="16.0777" height="16.0777" fill="white" transform="translate(244.117 333.796)" d="M0 0 L16.0777 0 L16.0777 16.0777 L0 16.0777 Z" class="EhatDXFe_29"></path>
</clipPath>
<clipPath id="clip1_110_433">
<path width="21.7282" height="21.7282" fill="white" transform="translate(114.073 274.319)" d="M0 0 L21.7282 0 L21.7282 21.7282 L0 21.7282 Z" class="EhatDXFe_30"></path>
</clipPath>
<clipPath id="clip2_110_433">
<path width="21.7282" height="21.7282" fill="white" transform="translate(114.073 274.319)" d="M0 0 L21.7282 0 L21.7282 21.7282 L0 21.7282 Z" class="EhatDXFe_31"></path>
</clipPath>
</defs>
<style data-made-with="vivus-instant">.EhatDXFe_0{stroke-dasharray:1864 1866;stroke-dashoffset:1865;animation:EhatDXFe_draw_0 2000ms linear 0ms infinite,EhatDXFe_fade 2000ms linear 0ms infinite;}.EhatDXFe_1{stroke-dasharray:1625 1627;stroke-dashoffset:1626;animation:EhatDXFe_draw_1 2000ms linear 0ms infinite,EhatDXFe_fade 2000ms linear 0ms infinite;}.EhatDXFe_2{stroke-dasharray:1335 1337;stroke-dashoffset:1336;animation:EhatDXFe_draw_2 2000ms linear 0ms infinite,EhatDXFe_fade 2000ms linear 0ms infinite;}.EhatDXFe_3{stroke-dasharray:1218 1220;stroke-dashoffset:1219;animation:EhatDXFe_draw_3 2000ms linear 0ms infinite,EhatDXFe_fade 2000ms linear 0ms infinite;}.EhatDXFe_4{stroke-dasharray:483 485;stroke-dashoffset:484;animation:EhatDXFe_draw_4 2000ms linear 0ms infinite,EhatDXFe_fade 2000ms linear 0ms infinite;}.EhatDXFe_5{stroke-dasharray:483 485;stroke-dashoffset:484;animation:EhatDXFe_draw_5 2000ms linear 0ms infinite,EhatDXFe_fade 2000ms linear 0ms infinite;}.EhatDXFe_6{stroke-dasharray:483 485;stroke-dashoffset:484;animation:EhatDXFe_draw_6 2000ms linear 0ms infinite,EhatDXFe_fade 2000ms linear 0ms infinite;}.EhatDXFe_7{stroke-dasharray:483 485;stroke-dashoffset:484;animation:EhatDXFe_draw_7 2000ms linear 0ms infinite,EhatDXFe_fade 2000ms linear 0ms infinite;}.EhatDXFe_8{stroke-dasharray:483 485;stroke-dashoffset:484;animation:EhatDXFe_draw_8 2000ms linear 0ms infinite,EhatDXFe_fade 2000ms linear 0ms infinite;}.EhatDXFe_9{stroke-dasharray:483 485;stroke-dashoffset:484;animation:EhatDXFe_draw_9 2000ms linear 0ms infinite,EhatDXFe_fade 2000ms linear 0ms infinite;}.EhatDXFe_10{stroke-dasharray:135 137;stroke-dashoffset:136;animation:EhatDXFe_draw_10 2000ms linear 0ms infinite,EhatDXFe_fade 2000ms linear 0ms infinite;}.EhatDXFe_11{stroke-dasharray:599 601;stroke-dashoffset:600;animation:EhatDXFe_draw_11 2000ms linear 0ms infinite,EhatDXFe_fade 2000ms linear 0ms infinite;}.EhatDXFe_12{stroke-dasharray:173 175;stroke-dashoffset:174;animation:EhatDXFe_draw_12 2000ms linear 0ms infinite,EhatDXFe_fade 2000ms linear 0ms infinite;}.EhatDXFe_13{stroke-dasharray:327 329;stroke-dashoffset:328;animation:EhatDXFe_draw_13 2000ms linear 0ms infinite,EhatDXFe_fade 2000ms linear 0ms infinite;}.EhatDXFe_14{stroke-dasharray:99 101;stroke-dashoffset:100;animation:EhatDXFe_draw_14 2000ms linear 0ms infinite,EhatDXFe_fade 2000ms linear 0ms infinite;}.EhatDXFe_15{stroke-dasharray:49 51;stroke-dashoffset:50;animation:EhatDXFe_draw_15 2000ms linear 0ms infinite,EhatDXFe_fade 2000ms linear 0ms infinite;}.EhatDXFe_16{stroke-dasharray:15 17;stroke-dashoffset:16;animation:EhatDXFe_draw_16 2000ms linear 0ms infinite,EhatDXFe_fade 2000ms linear 0ms infinite;}.EhatDXFe_17{stroke-dasharray:808 810;stroke-dashoffset:809;animation:EhatDXFe_draw_17 2000ms linear 0ms infinite,EhatDXFe_fade 2000ms linear 0ms infinite;}.EhatDXFe_18{stroke-dasharray:233 235;stroke-dashoffset:234;animation:EhatDXFe_draw_18 2000ms linear 0ms infinite,EhatDXFe_fade 2000ms linear 0ms infinite;}.EhatDXFe_19{stroke-dasharray:442 444;stroke-dashoffset:443;animation:EhatDXFe_draw_19 2000ms linear 0ms infinite,EhatDXFe_fade 2000ms linear 0ms infinite;}.EhatDXFe_20{stroke-dasharray:135 137;stroke-dashoffset:136;animation:EhatDXFe_draw_20 2000ms linear 0ms infinite,EhatDXFe_fade 2000ms linear 0ms infinite;}.EhatDXFe_21{stroke-dasharray:66 68;stroke-dashoffset:67;animation:EhatDXFe_draw_21 2000ms linear 0ms infinite,EhatDXFe_fade 2000ms linear 0ms infinite;}.EhatDXFe_22{stroke-dasharray:20 22;stroke-dashoffset:21;animation:EhatDXFe_draw_22 2000ms linear 0ms infinite,EhatDXFe_fade 2000ms linear 0ms infinite;}.EhatDXFe_23{stroke-dasharray:808 810;stroke-dashoffset:809;animation:EhatDXFe_draw_23 2000ms linear 0ms infinite,EhatDXFe_fade 2000ms linear 0ms infinite;}.EhatDXFe_24{stroke-dasharray:233 235;stroke-dashoffset:234;animation:EhatDXFe_draw_24 2000ms linear 0ms infinite,EhatDXFe_fade 2000ms linear 0ms infinite;}.EhatDXFe_25{stroke-dasharray:442 444;stroke-dashoffset:443;animation:EhatDXFe_draw_25 2000ms linear 0ms infinite,EhatDXFe_fade 2000ms linear 0ms infinite;}.EhatDXFe_26{stroke-dasharray:135 137;stroke-dashoffset:136;animation:EhatDXFe_draw_26 2000ms linear 0ms infinite,EhatDXFe_fade 2000ms linear 0ms infinite;}.EhatDXFe_27{stroke-dasharray:66 68;stroke-dashoffset:67;animation:EhatDXFe_draw_27 2000ms linear 0ms infinite,EhatDXFe_fade 2000ms linear 0ms infinite;}.EhatDXFe_28{stroke-dasharray:20 22;stroke-dashoffset:21;animation:EhatDXFe_draw_28 2000ms linear 0ms infinite,EhatDXFe_fade 2000ms linear 0ms infinite;}.EhatDXFe_29{stroke-dasharray:65 67;stroke-dashoffset:66;animation:EhatDXFe_draw_29 2000ms linear 0ms infinite,EhatDXFe_fade 2000ms linear 0ms infinite;}.EhatDXFe_30{stroke-dasharray:87 89;stroke-dashoffset:88;animation:EhatDXFe_draw_30 2000ms linear 0ms infinite,EhatDXFe_fade 2000ms linear 0ms infinite;}.EhatDXFe_31{stroke-dasharray:87 89;stroke-dashoffset:88;animation:EhatDXFe_draw_31 2000ms linear 0ms infinite,EhatDXFe_fade 2000ms linear 0ms infinite;}@keyframes EhatDXFe_draw{100%{stroke-dashoffset:0;}}@keyframes EhatDXFe_fade{0%{stroke-opacity:1;}100%{stroke-opacity:1;}100%{stroke-opacity:0;}}@keyframes EhatDXFe_draw_0{0%{stroke-dashoffset: 1865}50%{ stroke-dashoffset: 0;}100%{ stroke-dashoffset: 0;}}@keyframes EhatDXFe_draw_1{0%{stroke-dashoffset: 1626}50%{ stroke-dashoffset: 0;}100%{ stroke-dashoffset: 0;}}@keyframes EhatDXFe_draw_2{0%{stroke-dashoffset: 1336}50%{ stroke-dashoffset: 0;}100%{ stroke-dashoffset: 0;}}@keyframes EhatDXFe_draw_3{0%{stroke-dashoffset: 1219}50%{ stroke-dashoffset: 0;}100%{ stroke-dashoffset: 0;}}@keyframes EhatDXFe_draw_4{0%{stroke-dashoffset: 484}50%{ stroke-dashoffset: 0;}100%{ stroke-dashoffset: 0;}}@keyframes EhatDXFe_draw_5{0%{stroke-dashoffset: 484}50%{ stroke-dashoffset: 0;}100%{ stroke-dashoffset: 0;}}@keyframes EhatDXFe_draw_6{0%{stroke-dashoffset: 484}50%{ stroke-dashoffset: 0;}100%{ stroke-dashoffset: 0;}}@keyframes EhatDXFe_draw_7{0%{stroke-dashoffset: 484}50%{ stroke-dashoffset: 0;}100%{ stroke-dashoffset: 0;}}@keyframes EhatDXFe_draw_8{0%{stroke-dashoffset: 484}50%{ stroke-dashoffset: 0;}100%{ stroke-dashoffset: 0;}}@keyframes EhatDXFe_draw_9{0%{stroke-dashoffset: 484}50%{ stroke-dashoffset: 0;}100%{ stroke-dashoffset: 0;}}@keyframes EhatDXFe_draw_10{0%{stroke-dashoffset: 136}50%{ stroke-dashoffset: 0;}100%{ stroke-dashoffset: 0;}}@keyframes EhatDXFe_draw_11{0%{stroke-dashoffset: 600}50%{ stroke-dashoffset: 0;}100%{ stroke-dashoffset: 0;}}@keyframes EhatDXFe_draw_12{0%{stroke-dashoffset: 174}50%{ stroke-dashoffset: 0;}100%{ stroke-dashoffset: 0;}}@keyframes EhatDXFe_draw_13{0%{stroke-dashoffset: 328}50%{ stroke-dashoffset: 0;}100%{ stroke-dashoffset: 0;}}@keyframes EhatDXFe_draw_14{0%{stroke-dashoffset: 100}50%{ stroke-dashoffset: 0;}100%{ stroke-dashoffset: 0;}}@keyframes EhatDXFe_draw_15{0%{stroke-dashoffset: 50}50%{ stroke-dashoffset: 0;}100%{ stroke-dashoffset: 0;}}@keyframes EhatDXFe_draw_16{0%{stroke-dashoffset: 16}50%{ stroke-dashoffset: 0;}100%{ stroke-dashoffset: 0;}}@keyframes EhatDXFe_draw_17{0%{stroke-dashoffset: 809}50%{ stroke-dashoffset: 0;}100%{ stroke-dashoffset: 0;}}@keyframes EhatDXFe_draw_18{0%{stroke-dashoffset: 234}50%{ stroke-dashoffset: 0;}100%{ stroke-dashoffset: 0;}}@keyframes EhatDXFe_draw_19{0%{stroke-dashoffset: 443}50%{ stroke-dashoffset: 0;}100%{ stroke-dashoffset: 0;}}@keyframes EhatDXFe_draw_20{0%{stroke-dashoffset: 136}50%{ stroke-dashoffset: 0;}100%{ stroke-dashoffset: 0;}}@keyframes EhatDXFe_draw_21{0%{stroke-dashoffset: 67}50%{ stroke-dashoffset: 0;}100%{ stroke-dashoffset: 0;}}@keyframes EhatDXFe_draw_22{0%{stroke-dashoffset: 21}50%{ stroke-dashoffset: 0;}100%{ stroke-dashoffset: 0;}}@keyframes EhatDXFe_draw_23{0%{stroke-dashoffset: 809}50%{ stroke-dashoffset: 0;}100%{ stroke-dashoffset: 0;}}@keyframes EhatDXFe_draw_24{0%{stroke-dashoffset: 234}50%{ stroke-dashoffset: 0;}100%{ stroke-dashoffset: 0;}}@keyframes EhatDXFe_draw_25{0%{stroke-dashoffset: 443}50%{ stroke-dashoffset: 0;}100%{ stroke-dashoffset: 0;}}@keyframes EhatDXFe_draw_26{0%{stroke-dashoffset: 136}50%{ stroke-dashoffset: 0;}100%{ stroke-dashoffset: 0;}}@keyframes EhatDXFe_draw_27{0%{stroke-dashoffset: 67}50%{ stroke-dashoffset: 0;}100%{ stroke-dashoffset: 0;}}@keyframes EhatDXFe_draw_28{0%{stroke-dashoffset: 21}50%{ stroke-dashoffset: 0;}100%{ stroke-dashoffset: 0;}}@keyframes EhatDXFe_draw_29{0%{stroke-dashoffset: 66}50%{ stroke-dashoffset: 0;}100%{ stroke-dashoffset: 0;}}@keyframes EhatDXFe_draw_30{0%{stroke-dashoffset: 88}50%{ stroke-dashoffset: 0;}100%{ stroke-dashoffset: 0;}}@keyframes EhatDXFe_draw_31{0%{stroke-dashoffset: 88}50%{ stroke-dashoffset: 0;}100%{ stroke-dashoffset: 0;}}</style></svg>
